<svg xmlns="http://www.w3.org/2000/svg" xmlns:xlink="http://www.w3.org/1999/xlink" width="650.534" height="476.84" viewBox="0 0 650.534 476.84">
  <defs>
    <linearGradient id="linear-gradient" x1="-11.741" y1="5.084" x2="-11.741" y2="4.933" gradientUnits="objectBoundingBox">
      <stop offset="0" stop-color="gray" stop-opacity="0.251"/>
      <stop offset="0.535" stop-color="gray" stop-opacity="0.122"/>
      <stop offset="1" stop-color="gray" stop-opacity="0.102"/>
    </linearGradient>
  </defs>
  <g id="GraduateSVGfile" transform="translate(-0.005)">
    <path id="Path_63" data-name="Path 63" d="M29.064-.179c16.052-.1,29.052,1.755,29.037,4.14s-13.039,4.4-29.091,4.5S-.042,6.7-.027,4.319,13.012-.08,29.064-.179Z" transform="translate(7.725 262.651) rotate(-63.611)" fill="#e0e0e0"/>
    <path id="Path_64" data-name="Path 64" d="M29.064-.179C45.115-.278,58.12.956,58.11,2.577S45.079,5.591,29.027,5.69-.028,4.555-.018,2.934,13.012-.08,29.064-.179Z" transform="translate(367.62 444.186) rotate(-63.611)" fill="#e0e0e0"/>
    <path id="Path_65" data-name="Path 65" d="M0,0,17.331.132l.441,57.941L.441,57.941Z" transform="translate(180.265 336.664) rotate(39.547)" fill="#f55f44"/>
    <path id="Path_66" data-name="Path 66" d="M0,0,19.393.068l.2,58.258L.2,58.258Z" transform="translate(181.873 400.852) rotate(-166.769)" opacity="0.05"/>
    <path id="Path_67" data-name="Path 67" d="M0,0,17.236.06l.2,58.258L.2,58.258Z" transform="translate(181.873 400.852) rotate(-166.769)" fill="#f55f44"/>
    <path id="Path_68" data-name="Path 68" d="M0,0,61.034-.376l-2.5,401.65L-2.5,401.65Z" transform="translate(10.943 265.899) rotate(-63.611)" fill="url(#linear-gradient)"/>
    <path id="Path_53" data-name="Path 53" d="M575.135,651.616c-7.021-3.42-363.83-183.347-358.687-180.755,19.8-30.7,25.515-52.23,25.515-52.23L600.65,599.387S588.053,621.84,575.135,651.616Z" transform="translate(-204.868 -206.267)" fill="#f5f5f5"/>
    <path id="Path_69" data-name="Path 69" d="M0,0,33.111.206l.358,58.128L.358,58.128Z" transform="translate(193.94 291.408) rotate(26.389)" opacity="0.05"/>
    <path id="Path_70" data-name="Path 70" d="M0,0,30.232.188l.358,58.128L.358,58.128Z" transform="translate(195.226 292.056) rotate(26.389)" fill="#f55f44"/>
    <path id="Path_71" data-name="Path 71" d="M0,0,20.154.125l.358,58.128L.358,58.128Z" transform="translate(199.082 293.999) rotate(26.389)" opacity="0.05"/>
    <path id="Path_72" data-name="Path 72" d="M0,0,17.275.107l.358,58.128L.358,58.128Z" transform="translate(200.368 294.647) rotate(26.389)" fill="#f55f44"/>
    <ellipse id="Ellipse_19" data-name="Ellipse 19" cx="2.393" cy="2.43" rx="2.393" ry="2.43" transform="translate(211.325 466.013)" fill="#dbdbdb"/>
    <g id="Group_1" data-name="Group 1" transform="translate(18.317 400.39)" opacity="0.5">
      <rect id="Rectangle_34" data-name="Rectangle 34" width="2.454" height="14.122" transform="translate(5.725)" fill="#47e6b1"/>
      <rect id="Rectangle_35" data-name="Rectangle 35" width="2.492" height="13.904" transform="translate(13.904 5.815) rotate(90)" fill="#47e6b1"/>
    </g>
    <g id="Group_2" data-name="Group 2" transform="translate(636.635 224.285)" opacity="0.5">
      <rect id="Rectangle_36" data-name="Rectangle 36" width="2.454" height="14.122" transform="translate(5.725)" fill="#47e6b1"/>
      <rect id="Rectangle_37" data-name="Rectangle 37" width="2.492" height="13.904" transform="translate(13.904 5.815) rotate(90)" fill="#47e6b1"/>
    </g>
    <g id="Group_3" data-name="Group 3" transform="translate(33.039 49.01)" opacity="0.5">
      <rect id="Rectangle_38" data-name="Rectangle 38" width="2.454" height="14.122" transform="translate(5.725)" fill="#47e6b1"/>
      <rect id="Rectangle_39" data-name="Rectangle 39" width="2.492" height="13.904" transform="translate(13.904 5.815) rotate(90)" fill="#47e6b1"/>
    </g>
    <g id="Group_4" data-name="Group 4" transform="translate(563.026 27.413)" opacity="0.5">
      <rect id="Rectangle_40" data-name="Rectangle 40" width="2.454" height="14.122" transform="translate(5.725)" fill="#47e6b1"/>
      <rect id="Rectangle_41" data-name="Rectangle 41" width="2.492" height="13.904" transform="translate(13.904 5.815) rotate(90)" fill="#47e6b1"/>
    </g>
    <path id="Path_54" data-name="Path 54" d="M212.356,415.285a3.067,3.067,0,0,1-1.675-3.689,1.49,1.49,0,0,0,.065-.339h0a1.531,1.531,0,0,0-.983-1.529,1.493,1.493,0,0,0-1.725.515h0a1.472,1.472,0,0,0-.167.3,2.991,2.991,0,0,1-3.632,1.7,1.423,1.423,0,0,0-.333-.066h0a1.507,1.507,0,0,0-1.505,1,1.545,1.545,0,0,0,.507,1.752h0a1.44,1.44,0,0,0,.3.169,3.068,3.068,0,0,1,1.675,3.689,1.487,1.487,0,0,0-.065.339h0a1.531,1.531,0,0,0,.983,1.529,1.493,1.493,0,0,0,1.725-.515h0a1.473,1.473,0,0,0,.167-.3,2.991,2.991,0,0,1,3.632-1.7,1.426,1.426,0,0,0,.333.066h0a1.507,1.507,0,0,0,1.505-1,1.545,1.545,0,0,0-.507-1.752h0a1.439,1.439,0,0,0-.3-.169Z" transform="translate(-202.303 -204.743)" fill="#4d8af0" opacity="0.5"/>
    <path id="Path_55" data-name="Path 55" d="M384.356,218.285a3.067,3.067,0,0,1-1.675-3.689,1.489,1.489,0,0,0,.065-.339h0a1.531,1.531,0,0,0-.983-1.529,1.493,1.493,0,0,0-1.725.515h0a1.475,1.475,0,0,0-.167.3,2.991,2.991,0,0,1-3.632,1.7,1.425,1.425,0,0,0-.333-.066h0a1.507,1.507,0,0,0-1.505,1,1.545,1.545,0,0,0,.507,1.752h0a1.439,1.439,0,0,0,.3.169,3.067,3.067,0,0,1,1.675,3.689,1.489,1.489,0,0,0-.065.339h0a1.531,1.531,0,0,0,.983,1.529,1.493,1.493,0,0,0,1.725-.515h0a1.475,1.475,0,0,0,.167-.3,2.991,2.991,0,0,1,3.632-1.7,1.425,1.425,0,0,0,.333.066h0a1.507,1.507,0,0,0,1.505-1,1.545,1.545,0,0,0-.507-1.752h0A1.44,1.44,0,0,0,384.356,218.285Z" transform="translate(-233.627 -171.388)" fill="#4d8af0" opacity="0.5"/>
    <path id="Path_56" data-name="Path 56" d="M594.356,729.285a3.067,3.067,0,0,1-1.675-3.689,1.479,1.479,0,0,0,.065-.339h0a1.531,1.531,0,0,0-.983-1.529,1.493,1.493,0,0,0-1.725.514h0a1.475,1.475,0,0,0-.167.3,2.991,2.991,0,0,1-3.632,1.7,1.42,1.42,0,0,0-.333-.066h0a1.507,1.507,0,0,0-1.505,1,1.545,1.545,0,0,0,.507,1.752h0a1.432,1.432,0,0,0,.3.169,3.067,3.067,0,0,1,1.675,3.689,1.485,1.485,0,0,0-.065.338h0a1.531,1.531,0,0,0,.983,1.529,1.493,1.493,0,0,0,1.725-.515h0a1.471,1.471,0,0,0,.167-.3,2.991,2.991,0,0,1,3.632-1.7,1.422,1.422,0,0,0,.333.066h0a1.507,1.507,0,0,0,1.505-1,1.545,1.545,0,0,0-.507-1.752h0A1.436,1.436,0,0,0,594.356,729.285Z" transform="translate(-271.872 -257.909)" fill="#4d8af0" opacity="0.5"/>
    <ellipse id="Ellipse_20" data-name="Ellipse 20" cx="4.907" cy="4.984" rx="4.907" ry="4.984" transform="translate(616.188 363.839)" fill="#f55f44" opacity="0.5"/>
    <ellipse id="Ellipse_21" data-name="Ellipse 21" cx="4.907" cy="4.984" rx="4.907" ry="4.984" transform="translate(508.228 395.405)" fill="#4d8af0" opacity="0.5"/>
    <ellipse id="Ellipse_22" data-name="Ellipse 22" cx="4.907" cy="4.984" rx="4.907" ry="4.984" transform="translate(79.658 444.416)" fill="#47e6b1" opacity="0.5"/>
    <ellipse id="Ellipse_23" data-name="Ellipse 23" cx="4.907" cy="4.984" rx="4.907" ry="4.984" transform="translate(331.565)" fill="#f55f44" opacity="0.5"/>
    <path id="Path_57" data-name="Path 57" d="M402.826,506.766l-19.629,29.9s6.543,30.735,151.308,29.9,156.215-29.9,156.215-29.9L663.731,496.8l-82.606-57.317Z" transform="translate(-235.246 -209.797)" fill="#6c63ff"/>
    <path id="Path_58" data-name="Path 58" d="M402.826,506.766l-19.629,29.9s6.543,30.735,151.308,29.9,156.215-29.9,156.215-29.9L663.731,496.8l-82.606-57.317Z" transform="translate(-235.246 -209.797)" opacity="0.15"/>
    <path id="Path_59" data-name="Path 59" d="M588.093,196.909,330.461,312.374,16.394,196.909,304.288,64,445.61,130.181l5.063,2.376Z" transform="translate(-2.985 -10.836)" fill="#6c63ff"/>
    <path id="Path_60" data-name="Path 60" d="M588.093,196.909,330.461,312.374,16.394,196.909,304.288,64,445.61,130.181l5.063,2.376Z" transform="translate(-2.985 -10.836)" opacity="0.15"/>
    <path id="Path_61" data-name="Path 61" d="M551.579,238.077l-4.907.3-5.488-94.706,5.063,2.376Z" transform="translate(-98.559 -24.326)" fill="#f5f5f5"/>
    <path id="Path_62" data-name="Path 62" d="M406.1,383.032,383.2,524.248s164.394-53.994,307.524,0L669.456,374.725S477.253,350.636,406.1,383.032Z" transform="translate(-235.246 -197.374)" fill="#6c63ff"/>
    <ellipse id="Ellipse_24" data-name="Ellipse 24" cx="23.719" cy="16.614" rx="23.719" ry="16.614" transform="translate(428.893 209.332)" fill="#f5f5f5"/>
  </g>
</svg>
