<svg xmlns="http://www.w3.org/2000/svg" width="715.175" height="477.226" viewBox="0 0 715.175 477.226">
  <path id="left" d="M2530.5,1287.74h0V952.5h649.9c-9.789,13.748-20.437,28.469-31.647,43.755a270.137,270.137,0,0,1-28.491,32.961,266.36,266.36,0,0,1-31.707,26.573,293.187,293.187,0,0,1-34.485,21.1,356.169,356.169,0,0,1-36.827,16.547c-12.131,4.671-24.8,8.894-38.732,12.909-12.419,3.579-25.568,6.911-40.2,10.186-27.2,6.088-55.594,11.063-83.056,15.873-79.6,13.943-161.908,28.362-230.292,71.879-37.556,23.9-69.338,51.977-94.462,83.454Zm-65-476.24h-.275v-.986h.275v.985Z" transform="translate(-2465.225 -810.514)" fill="#2042b2"/>
</svg>
