<svg xmlns="http://www.w3.org/2000/svg" width="737.137" height="477.227" viewBox="0 0 737.137 477.227">
  <defs>
    <style>
      .cls-1 {
        fill: #2042b2;
      }
    </style>
  </defs>
  <path id="navleft" class="cls-1" d="M2384.5,789.741h0V454.5h649.9c-9.809,13.777-20.457,28.5-31.646,43.755a270.073,270.073,0,0,1-28.491,32.962,266.357,266.357,0,0,1-31.707,26.573,293.182,293.182,0,0,1-34.484,21.1,356.142,356.142,0,0,1-36.828,16.547c-12.137,4.673-24.807,8.9-38.732,12.908-12.414,3.578-25.563,6.91-40.2,10.187-27.2,6.088-55.595,11.062-83.057,15.873-79.6,13.943-161.907,28.361-230.291,71.878-37.555,23.9-69.337,51.978-94.462,83.455Zm737-475.866h0v-1.361h.127A4.772,4.772,0,0,1,3121.5,313.874Z" transform="translate(-2384.499 -312.513)"/>
</svg>
