<svg xmlns="http://www.w3.org/2000/svg" width="725" height="1053.999" viewBox="0 0 725 1053.999">
  <path id="Subtraction_1" data-name="Subtraction 1" d="M3324,2451a650.232,650.232,0,0,1-66.868-3.451,638.483,638.483,0,0,1-127.612-26.6c-20.29-6.451-40.506-14.014-60.087-22.479-19.4-8.387-38.635-17.859-57.169-28.15-18.4-10.219-36.544-21.484-53.922-33.485-17.3-11.944-34.235-24.892-50.347-38.484-16.073-13.559-31.7-28.075-46.443-43.146s-28.945-31.042-42.211-47.473c-13.3-16.471-25.965-33.786-37.649-51.463-11.741-17.764-22.762-36.308-32.759-55.118-10.068-18.945-19.334-38.606-27.54-58.436-8.282-20.016-15.681-40.68-21.992-61.419-6.382-20.975-11.8-42.53-16.115-64.065-4.368-21.818-7.7-44.149-9.911-66.376-2.24-22.551-3.376-45.548-3.376-68.35a681.685,681.685,0,0,1,31.556-205.735A671.446,671.446,0,0,1,2789.628,1397H3395V2447.106A649.942,649.942,0,0,1,3324,2451Z" transform="translate(-2670 -1397.001)" fill="rgba(0,0,0,0.02)" opacity="0.96"/>
</svg>
