<svg xmlns="http://www.w3.org/2000/svg" xmlns:xlink="http://www.w3.org/1999/xlink" width="1920" height="1080" viewBox="0 0 1920 1080">
  <defs>
    <clipPath id="clip-Web_1920_1">
      <rect width="1920" height="1080"/>
    </clipPath>
  </defs>
  <g id="Web_1920_1" data-name="Web 1920 – 1" clip-path="url(#clip-Web_1920_1)">
    <rect width="1920" height="1080" fill="#fbfbfb"/>
    <path id="Subtraction_2" data-name="Subtraction 2" d="M1431,1123.437h0V633h643.335c-7.115,17.981-15.007,35.926-23.455,53.338-8.4,17.321-17.562,34.538-27.219,51.172-9.62,16.573-19.984,33-30.806,48.831-10.782,15.773-22.3,31.356-34.218,46.315-11.9,14.929-24.5,29.606-37.454,43.621S1894.6,904,1880.67,917.029s-28.546,25.726-43.4,37.707c-14.887,12.01-30.4,23.612-46.1,34.485A779.465,779.465,0,0,1,1583.2,1091.427c-24.631,7.821-49.954,14.484-75.265,19.807-25.284,5.317-51.169,9.423-76.935,12.2Z" transform="translate(-1431 -633)" fill="#0f4861"/>
  </g>
</svg>
