<?xml version="1.0" encoding="utf-8"?>
<!-- Generator: Adobe Illustrator 19.0.0, SVG Export Plug-In . SVG Version: 6.00 Build 0)  -->
<svg version="1.1" id="Layer_1" xmlns="http://www.w3.org/2000/svg" xmlns:xlink="http://www.w3.org/1999/xlink" x="0px" y="0px"
	 viewBox="131 -131 512 512" style="enable-background:new 131 -131 512 512;" xml:space="preserve">
<g id="XMLID_1_">
	<path id="XMLID_5_" d="M536.3,125c0,4.3-1.7,8.5-5.1,11.9l-238.9,239c-3.4,3.4-7.7,5.1-11.9,5.1c-4.2,0-8.5-1.7-11.9-5.1
		l-25.6-25.6c-3.4-3.4-5.1-7.7-5.1-11.9s1.7-8.5,5.1-11.9L444.2,125L242.8-76.4c-3.4-3.4-5.1-7.7-5.1-11.9s1.7-8.5,5.1-11.9
		l25.6-25.6c3.4-3.4,7.7-5.1,11.9-5.1c4.2,0,8.5,1.7,11.9,5.1l238.9,238.9C534.6,116.5,536.3,120.7,536.3,125z"/>
</g>
</svg>
