<svg id="SVGMobileDev" xmlns="http://www.w3.org/2000/svg" width="372.078" height="301.068" viewBox="0 0 372.078 301.068">
  <path id="Path_9" data-name="Path 9" d="M235.38,288.686c-80.085-6.5-175.59-72.632-170.728-140.73s97.36-131.492,177.445-125S368.282,156.719,363.419,224.817,315.465,295.181,235.38,288.686Z" transform="translate(-55.365 -22.5)" fill="#f2f2f2"/>
  <ellipse id="Ellipse_8" data-name="Ellipse 8" cx="167.175" cy="10.916" rx="167.175" ry="10.916" transform="translate(19.557 255.292)" fill="#3f3d56"/>
  <ellipse id="Ellipse_9" data-name="Ellipse 9" cx="142.396" cy="7.219" rx="142.396" ry="7.219" transform="translate(44.336 258.813)" opacity="0.1"/>
  <ellipse id="Ellipse_10" data-name="Ellipse 10" cx="70.106" cy="6.514" rx="70.106" ry="6.514" transform="translate(0 288.039)" fill="#3f3d56"/>
  <ellipse id="Ellipse_11" data-name="Ellipse 11" cx="59.714" cy="4.308" rx="59.714" ry="4.308" transform="translate(10.391 290.141)" opacity="0.1"/>
  <rect id="Rectangle_23" data-name="Rectangle 23" width="248.449" height="207.755" transform="translate(64.82 57.044)" fill="#3f3d56"/>
  <path id="Path_10" data-name="Path 10" d="M474.808,262.212H413.516a.794.794,0,0,1,0-1.586h61.292a.794.794,0,0,1,0,1.586Z" transform="translate(-288.591 -176.776)" fill="#f2f2f2"/>
  <path id="Path_11" data-name="Path 11" d="M606.729,286.978h-96.4a.794.794,0,0,1,0-1.586h96.4a.794.794,0,0,1,0,1.586Z" transform="translate(-353.417 -192.821)" fill="#f2f2f2"/>
  <path id="Path_12" data-name="Path 12" d="M475.709,311.744H414.416a.794.794,0,0,1,0-1.586h61.292a.794.794,0,0,1,0,1.586Z" transform="translate(-289.194 -208.866)" fill="#f2f2f2"/>
  <path id="Path_13" data-name="Path 13" d="M677.887,312.194H616.594a.794.794,0,0,1,0-1.586h61.292a.794.794,0,0,1,0,1.586Z" transform="translate(-424.575 -209.158)" fill="#f2f2f2"/>
  <path id="Path_14" data-name="Path 14" d="M476.159,336.509H414.866a.794.794,0,0,1,0-1.586h61.292a.794.794,0,0,1,0,1.586Z" transform="translate(-289.495 -224.911)" fill="#f2f2f2"/>
  <path id="Path_15" data-name="Path 15" d="M476.609,361.275H415.317a.794.794,0,0,1,0-1.586h61.292a.794.794,0,0,1,0,1.586Z" transform="translate(-289.797 -240.956)" fill="#f2f2f2"/>
  <path id="Path_16" data-name="Path 16" d="M649.459,262.662H631.9a.794.794,0,0,1,0-1.586h17.555a.794.794,0,0,1,0,1.586Z" transform="translate(-434.827 -177.067)" fill="#f2f2f2"/>
  <path id="Path_17" data-name="Path 17" d="M649.459,336.509H631.9a.794.794,0,0,1,0-1.586h17.555a.794.794,0,0,1,0,1.586Z" transform="translate(-434.827 -224.911)" fill="#f2f2f2"/>
  <path id="Path_18" data-name="Path 18" d="M649.459,360.825H631.9a.794.794,0,0,1,0-1.586h17.555a.794.794,0,0,1,0,1.586Z" transform="translate(-434.827 -240.665)" fill="#f2f2f2"/>
  <path id="Path_19" data-name="Path 19" d="M738.616,360.825H721.061a.794.794,0,0,1,0-1.586h17.555a.794.794,0,0,1,0,1.586Z" transform="translate(-494.528 -240.665)" fill="#f2f2f2"/>
  <path id="Path_20" data-name="Path 20" d="M430.62,286.978H413.065a.794.794,0,0,1,0-1.586H430.62a.794.794,0,0,1,0,1.586Z" transform="translate(-288.289 -192.821)" fill="#f2f2f2"/>
  <path id="Path_21" data-name="Path 21" d="M475.033,626.944H413.741a.794.794,0,0,1,0-1.586h61.292a.794.794,0,0,1,0,1.586Z" transform="translate(-288.742 -413.076)" fill="#f2f2f2"/>
  <path id="Path_22" data-name="Path 22" d="M474.133,676.475H412.84a.794.794,0,0,1,0-1.586h61.292a.794.794,0,0,1,0,1.586Z" transform="translate(-288.138 -445.166)" fill="#f2f2f2"/>
  <path id="Path_23" data-name="Path 23" d="M474.583,701.241H413.29a.794.794,0,0,1,0-1.586h61.292a.794.794,0,0,1,0,1.586Z" transform="translate(-288.44 -461.211)" fill="#f2f2f2"/>
  <path id="Path_24" data-name="Path 24" d="M642.48,676.925H624.925a.794.794,0,0,1,0-1.586H642.48a.794.794,0,0,1,0,1.586Z" transform="translate(-430.154 -445.457)" fill="#f2f2f2"/>
  <path id="Path_25" data-name="Path 25" d="M642.48,701.241H624.925a.794.794,0,0,1,0-1.586H642.48a.794.794,0,0,1,0,1.586Z" transform="translate(-430.154 -461.211)" fill="#f2f2f2"/>
  <path id="Path_26" data-name="Path 26" d="M731.636,676.925H714.081a.794.794,0,0,1,0-1.586h17.555a.794.794,0,0,1,0,1.586Z" transform="translate(-489.854 -445.457)" fill="#f2f2f2"/>
  <path id="Path_27" data-name="Path 27" d="M606.954,651.709h-96.4a.794.794,0,0,1,0-1.586h96.4a.794.794,0,0,1,0,1.586Z" transform="translate(-353.568 -429.12)" fill="#f2f2f2"/>
  <path id="Path_28" data-name="Path 28" d="M430.845,651.709H413.29a.794.794,0,0,1,0-1.586h17.555a.794.794,0,0,1,0,1.586Z" transform="translate(-288.44 -429.12)" fill="#f2f2f2"/>
  <path id="Path_29" data-name="Path 29" d="M606.954,726.457h-96.4a.794.794,0,0,1,0-1.586h96.4a.794.794,0,0,1,0,1.586Z" transform="translate(-353.568 -477.548)" fill="#f2f2f2"/>
  <path id="Path_30" data-name="Path 30" d="M430.845,726.457H413.29a.794.794,0,0,1,0-1.586h17.555a.794.794,0,0,1,0,1.586Z" transform="translate(-288.44 -477.548)" fill="#f2f2f2"/>
  <path id="Path_31" data-name="Path 31" d="M470.817,401.13l-23.8,25.052,23.8,25.052,5.356-5.708-18-19.186L476.321,407Z" transform="translate(-299.327 -259.882)" fill="#6c63ff"/>
  <path id="Path_32" data-name="Path 32" d="M614.171,401.13l23.8,25.052-23.8,25.052-5.356-5.708,18-19.186L608.667,407Z" transform="translate(-407.573 -259.882)" fill="#6c63ff"/>
  <ellipse id="Ellipse_12" data-name="Ellipse 12" cx="2.973" cy="3.169" rx="2.973" ry="3.169" transform="translate(68.454 59.157)" fill="#6c63ff"/>
  <ellipse id="Ellipse_13" data-name="Ellipse 13" cx="2.973" cy="3.169" rx="2.973" ry="3.169" transform="translate(76.383 59.157)" fill="#6c63ff"/>
  <ellipse id="Ellipse_14" data-name="Ellipse 14" cx="2.973" cy="3.169" rx="2.973" ry="3.169" transform="translate(84.312 59.157)" fill="#6c63ff"/>
  <rect id="Rectangle_24" data-name="Rectangle 24" width="248.449" height="1.056" transform="translate(64.82 67.608)" opacity="0.1"/>
  <path id="Path_33" data-name="Path 33" d="M1049.7,536.078c0,22.455-12.525,30.3-27.976,30.3s-27.976-7.841-27.976-30.3,27.976-51.022,27.976-51.022S1049.7,513.623,1049.7,536.078Z" transform="translate(-677.621 -322.178)" fill="#f2f2f2"/>
  <path id="Path_34" data-name="Path 34" d="M1015.643,540.439l.287-18.793,11.924-23.25-11.877,20.3.129-8.45,8.217-16.821-8.184,14.585h0l.231-15.2,8.8-13.392-8.765,11,.145-27.868-.909,36.892.073-1.522-8.947-14.6,8.8,17.518-.836,16.974-.023-.451L1004.4,502.01l10.282,16.952-.1,2.123-.02.032.01.174-2.115,43.064h2.825l.337-22.243,10.259-16.911Z" transform="translate(-672.561 -299.678)" fill="#3f3d56"/>
  <path id="Path_35" data-name="Path 35" d="M140.064,769.787a13.793,13.793,0,0,1-2.7,1.233c-1.678.489-3.471.309-5.166.726a2.136,2.136,0,0,0-1.67,1.25,2.783,2.783,0,0,0,.183,1.628c1.873,5.852,3,12.066,5.988,17.367a26,26,0,0,0,4.623,5.982,4.341,4.341,0,0,0,2.357,1.393,2.336,2.336,0,0,0,2.191-1.042,2.694,2.694,0,0,0,.244-2.544c-.268-.634-.766-1.125-1.087-1.731a6.953,6.953,0,0,1-.6-2.462c-.3-2.5-.579-5.119.234-7.488a25.622,25.622,0,0,1,2.381-4.383,8.012,8.012,0,0,0,1.341-4.769,8.6,8.6,0,0,0-1.206-3.188c-.556-.994-1.653-3.665-2.77-4C143.247,767.418,141.074,769.235,140.064,769.787Z" transform="translate(-99.551 -505.308)" fill="#2f2e41"/>
  <path id="Path_36" data-name="Path 36" d="M247.408,818.192a5.238,5.238,0,0,1-.219,1.671c-.349.983-1.216,1.657-1.664,2.594a6.081,6.081,0,0,0,.072,4.273,4.442,4.442,0,0,0,1.293,2.325,4.079,4.079,0,0,0,1.967.672c5.959.879,12.012.375,18.025.559a5.812,5.812,0,0,0,3.213-.5,2.229,2.229,0,0,0,.9-2.946c-.584-.845-1.74-.837-2.723-.887a10.852,10.852,0,0,1-6.909-3.033,5.24,5.24,0,0,1-.969-1.189,7.561,7.561,0,0,1-.507-1.239,57.061,57.061,0,0,0-3-7.084,3.7,3.7,0,0,0-1.29-1.647,3.231,3.231,0,0,0-1.4-.326c-1.5-.1-5.38-.647-6.539.595C246.582,813.18,247.431,816.734,247.408,818.192Z" transform="translate(-176.356 -533.498)" fill="#2f2e41"/>
  <ellipse id="Ellipse_15" data-name="Ellipse 15" cx="9.573" cy="10.203" rx="9.573" ry="10.203" transform="translate(70.701 122.45)" fill="#fbbebe"/>
  <path id="Path_37" data-name="Path 37" d="M247.749,414.439a7.617,7.617,0,0,1-2.941,4.025l13.24,2.879a15.909,15.909,0,0,1-.186-6.292,3.858,3.858,0,0,0,.079-1.553,2.816,2.816,0,0,0-2.3-1.752,29.253,29.253,0,0,1-6.8-2.039C248.159,410.959,248.255,412.995,247.749,414.439Z" transform="translate(-176.12 -273.361)" fill="#fbbebe"/>
  <path id="Path_38" data-name="Path 38" d="M220.167,421.921a9.782,9.782,0,0,1,9.024.251,20.707,20.707,0,0,1,4.484,3.812c1.273,1.309,2.631,2.807,2.721,4.69a13.952,13.952,0,0,1-.358,2.706,9.238,9.238,0,0,0,4.553,9.321,13.029,13.029,0,0,1,1.285,6.308c.061,8.252-2.382,16.607-.638,24.647.409,1.888,1.045,3.716,1.4,5.617.458,2.462.436,4.993.675,7.49A35.425,35.425,0,0,0,245,494.684a3,3,0,0,1-2.855,1.272,7.734,7.734,0,0,1-3.053-1.1c-4.666-2.545-8.94-5.9-13.773-8.064-3.2-1.431-6.6-2.322-9.705-3.975s-5.987-4.275-6.935-7.831a19.489,19.489,0,0,1-.458-4.755c-.094-6.73-.182-13.534,1.193-20.1,1.212-5.794,3.549-11.336,4.059-17.247.166-1.924.169-3.984,1.178-5.589C216.076,425.018,219.155,424.43,220.167,421.921Z" transform="translate(-151.589 -280.639)" fill="#2f2e41"/>
  <path id="Path_39" data-name="Path 39" d="M242.332,371a2.37,2.37,0,0,1,2.553-.659c.9.232,1.732.727,2.642.915a1.463,1.463,0,0,0,1.237-.185,1.975,1.975,0,0,0,.534-1.257,25.563,25.563,0,0,0,.222-6.12,1.926,1.926,0,0,1,.052-.858c.225-.579.913-.716,1.474-.9a4.7,4.7,0,0,0,2.978-4.8,1.969,1.969,0,0,0-.547-1.317,2.143,2.143,0,0,0-1.433-.362q-3.86-.033-7.72,0a5.306,5.306,0,0,0-2.778.54,13.75,13.75,0,0,0-1.612,1.448c-1.429,1.229-3.363,1.479-5.1,2.109a5.006,5.006,0,0,0-2.236,1.421,2.635,2.635,0,0,0-.493,2.6,9.334,9.334,0,0,0,.623,1.023c1.026,1.748.343,4.015.5,6.071.191,2.566,3.755,6.73,6.171,7.337C243.294,378.982,241.04,372.68,242.332,371Z" transform="translate(-167.502 -238.198)" fill="#2f2e41"/>
  <path id="Path_40" data-name="Path 40" d="M243.287,686.266a32.4,32.4,0,0,1,.477,5.644c-.118,2.639-1.011,5.181-1.176,7.817-.123,1.969.162,3.959-.095,5.913-.164,1.251-.547,2.457-.784,3.7a16.091,16.091,0,0,0,2.3,11.714,1.858,1.858,0,0,0,.668.691,1.779,1.779,0,0,0,.829.117,55.891,55.891,0,0,0,8.316-.806.775.775,0,0,0,.534-.251.831.831,0,0,0,.116-.336c.51-2.795-.653-5.6-.949-8.426a27.773,27.773,0,0,1,1.039-9,42.028,42.028,0,0,1,1.146-4.306c.326-.95.72-1.874,1-2.839a22.947,22.947,0,0,0,.728-4.649q.295-3.724.312-7.465a33.329,33.329,0,0,0-.55-7.046,39.026,39.026,0,0,0-3.151-8.356,4.839,4.839,0,0,0-1.856.94,40.735,40.735,0,0,1-5.071,2.986c-1.178.583-3.476,1-4.224,2.213-.738,1.2-.262,3.645-.205,4.967Q242.843,682.885,243.287,686.266Z" transform="translate(-173.861 -440.945)" fill="#2f2e41"/>
  <path id="Path_41" data-name="Path 41" d="M243.287,686.266a32.4,32.4,0,0,1,.477,5.644c-.118,2.639-1.011,5.181-1.176,7.817-.123,1.969.162,3.959-.095,5.913-.164,1.251-.547,2.457-.784,3.7a16.091,16.091,0,0,0,2.3,11.714,1.858,1.858,0,0,0,.668.691,1.779,1.779,0,0,0,.829.117,55.891,55.891,0,0,0,8.316-.806.775.775,0,0,0,.534-.251.831.831,0,0,0,.116-.336c.51-2.795-.653-5.6-.949-8.426a27.773,27.773,0,0,1,1.039-9,42.028,42.028,0,0,1,1.146-4.306c.326-.95.72-1.874,1-2.839a22.947,22.947,0,0,0,.728-4.649q.295-3.724.312-7.465a33.329,33.329,0,0,0-.55-7.046,39.026,39.026,0,0,0-3.151-8.356,4.839,4.839,0,0,0-1.856.94,40.735,40.735,0,0,1-5.071,2.986c-1.178.583-3.476,1-4.224,2.213-.738,1.2-.262,3.645-.205,4.967Q242.843,682.885,243.287,686.266Z" transform="translate(-173.861 -440.945)" opacity="0.1"/>
  <path id="Path_42" data-name="Path 42" d="M182.388,605.518c-1.271,3.648.6,7.59,2.221,11.075,4,8.587,6.777,17.75,9.54,26.873a3.5,3.5,0,0,1,.183,2.1,2.719,2.719,0,0,1-.932,1.179c-1.9,1.542-4.33,2.091-6.6,2.9a29,29,0,0,0-6.258,3.127c-1.644,1.086-3.185,2.34-4.722,3.591l-4.894,3.983a3.375,3.375,0,0,0-.818.844,3.614,3.614,0,0,0-.044,2.721,48.274,48.274,0,0,0,2.4,6.969,2.422,2.422,0,0,0,.869,1.214c.764.437,1.7-.143,2.281-.827s1.088-1.535,1.91-1.828,1.725.062,2.583-.066c1.387-.208,2.308-1.569,3.308-2.615,4.085-4.272,10.906-3.962,15.4-7.739a19.8,19.8,0,0,1,2.059-1.714c.76-.479,1.621-.741,2.41-1.164,2.4-1.287,3.9-3.947,4.712-6.675s1.038-5.609,1.618-8.4a38.658,38.658,0,0,0,.828-4.345,24.8,24.8,0,0,0-.084-4.108l-1.621-21.379c-.132-1.741-.264-3.483-.521-5.208-4.816.183-9.628.39-14.447.451C189.931,606.524,186.026,606.81,182.388,605.518Z" transform="translate(-125.905 -400.222)" fill="#2f2e41"/>
  <path id="Path_43" data-name="Path 43" d="M201.563,604.293c.653,1.12,2.243,1.1,3.338.483s1.946-1.645,3.043-2.254a9.334,9.334,0,0,1,4.882-.737,29.868,29.868,0,0,1,7.826.932c2.618.795,5.167,2.325,7.874,2.02a1.583,1.583,0,0,0,1.243-.622,2.06,2.06,0,0,0,.2-1l.089-2.521a2.41,2.41,0,0,0-.188-1.277,2.03,2.03,0,0,0-.9-.732c-3.853-1.988-8.248-2.358-12.527-2.515q-3.262-.119-6.528-.1c-1.847.012-4.065-.273-5.861.253C201.652,596.933,200.341,602.2,201.563,604.293Z" transform="translate(-146.851 -393.996)" fill="#2f2e41"/>
  <path id="Path_44" data-name="Path 44" d="M224.674,425.426c-5.049-.048-9.624-3.6-14.673-3.686a3.6,3.6,0,0,0-1.782.328,6.834,6.834,0,0,0-1.7,1.725c-1.493,1.723-3.654,2.643-5.188,4.324a6.694,6.694,0,0,0-1.67,6.04c.568,2.114,2.71,3.736,4.718,3.227a12.933,12.933,0,0,1,4.737-6.859,23.6,23.6,0,0,1,3.7-2.071c2.269-1.1,4.806-2.212,7.175-1.391a9.949,9.949,0,0,1,2.448,1.423l3.949,2.828A30.735,30.735,0,0,0,224.674,425.426Z" transform="translate(-145.765 -281.151)" fill="#6c63ff"/>
  <path id="Path_45" data-name="Path 45" d="M198.314,443.571c-.67.891.3,2.183.148,3.315-.1.752-.679,1.326-.92,2.04a11.632,11.632,0,0,0-.213,2.339,10.56,10.56,0,0,1-.421,1.665,31.683,31.683,0,0,0-.888,4.939l-.884,7.034a28.351,28.351,0,0,0-.28,3.2,10.16,10.16,0,0,1-.149,2.39,18.244,18.244,0,0,1-.921,2.175,2.7,2.7,0,0,0-.033,2.3,4.2,4.2,0,0,0-.789,5.013,2.842,2.842,0,0,1,.406.8,2.168,2.168,0,0,1-.179,1.176l-.894,2.538c-.229.65-.3,1.638.335,1.787a6.053,6.053,0,0,0-1.206,2.031,2.549,2.549,0,0,0,.321,2.291,2.887,2.887,0,0,1,.56.724,2.047,2.047,0,0,1-.065,1.142,4.428,4.428,0,0,0,.487,3.287,2.7,2.7,0,0,0,2.781,1.271c1.788-.43,3.394-1.108,5.2-.756a87.98,87.98,0,0,1,11.532,2.8c4.29,1.46,8.443,3.6,12.927,4.05a1.188,1.188,0,0,0,.864-.143,1.421,1.421,0,0,0,.4-.876l1.386-6.925a75.539,75.539,0,0,0,1.274-7.757c.158-1.684.2-3.377.248-5.068l.357-13.462a14.271,14.271,0,0,0-.727-5.852l-2.054-6.989c-1.172-3.988-3.861-7.525-4.819-11.578-.606-2.565-1.054-5.318-2.679-7.318-2.317-2.85-6.325-3.294-9.833-2.8a11.227,11.227,0,0,0-4.554,1.48,15.463,15.463,0,0,0-3.883,4.168C200.214,441.271,199.267,442.3,198.314,443.571Z" transform="translate(-140.282 -289.208)" fill="#6c63ff"/>
  <path id="Path_46" data-name="Path 46" d="M236.683,557.256c.289,1.328.9,2.553,1.268,3.858.623,2.186.57,4.541,1.191,6.728.261.918.639,1.8.826,2.737a12,12,0,0,1-.992,6.52,26.637,26.637,0,0,0-2.012,6.331,5.062,5.062,0,0,0,1.209,4.342c1.173,1.053,2.879.982,4.407.842a4.385,4.385,0,0,0,1.6-.355c1.169-.589,1.661-2.063,1.934-3.41.916-4.514.654-9.193.388-13.8l-.7-12.055a29.944,29.944,0,0,0-.948-6.918c-.244-.811-.67-2.449-1.364-2.966s-2.653-.536-3.5-.578C235.991,548.329,236.036,554.275,236.683,557.256Z" transform="translate(-170.46 -363.297)" fill="#fbbebe"/>
  <path id="Path_47" data-name="Path 47" d="M234.535,446.452a2.607,2.607,0,0,0-2.634.248,8.382,8.382,0,0,0-1.973,2.042c-1.764,2.295-3.631,4.928-3.37,7.881a21.073,21.073,0,0,0,.766,3.23c1.183,4.711-.125,9.694.025,14.568a48.4,48.4,0,0,0,1.234,8.338c.117.561.3,1.211.814,1.4a1.672,1.672,0,0,0,1.175-.194,8.888,8.888,0,0,1,8.578,1.152c.947-.538.592-2.24.38-3.361-.631-3.33.225-6.766,1.265-9.978s2.283-6.419,2.455-9.812c.2-3.844-1-7.6-2.18-11.234a4.919,4.919,0,0,0-1.136-2.176,4.39,4.39,0,0,0-1.719-.837A18.844,18.844,0,0,1,234.535,446.452Z" transform="translate(-163.883 -297.002)" fill="#2f2e41"/>
</svg>
